<svg width="40" height="40" viewBox="0 0 120 120" fill="none" xmlns="http://www.w3.org/2000/svg">
<path fill-rule="evenodd" clip-rule="evenodd" d="M0 20C0 8.9541 8.9541 0 20 0H100C111.046 0 120 8.9541 120 20V100C120 111.046 111.046 120 100 120H20C8.9541 120 0 111.046 0 100V20ZM68.7002 84V42.7998H79.7402V49.9199C81.4473 47.04 83.4199 44.96 85.6602 43.6797C87.9531 42.3467 90.5664 41.6797 93.5 41.6797C97.9268 41.6797 101.394 43.0127 103.9 45.6797C106.407 48.293 107.66 51.9463 107.66 56.6396V84H96.3799V58.3994C96.3799 56.2129 95.8467 54.5332 94.7803 53.3594C93.7139 52.1865 92.2734 51.5996 90.46 51.5996C88.2734 51.5996 86.2197 52.4268 84.2998 54.0801C82.4336 55.6797 80.9932 57.6797 79.9805 60.0801V84H68.7002ZM11.5996 30.7197V84H22.2393V46.3994L44.4795 84H57.9199V30.7197H47.2793V68.0801L25.1992 30.7197H11.5996Z" fill="black"/>
</svg>
